<?xml version="1.0" encoding="utf-8"?>
<!-- Generator: Adobe Illustrator 25.4.1, SVG Export Plug-In . SVG Version: 6.00 Build 0)  -->
<svg version="1.1" id="レイヤー_1" xmlns="http://www.w3.org/2000/svg" xmlns:xlink="http://www.w3.org/1999/xlink" x="0px"
	 y="0px" viewBox="0 0 260 260" style="enable-background:new 0 0 260 260;" xml:space="preserve">
<style type="text/css">
	.st0{fill:#FFFFFF;}
	.st1{fill:none;stroke:#F39800;stroke-width:24;stroke-linecap:round;stroke-linejoin:round;stroke-miterlimit:10;}
	.st2{fill:none;stroke:#036EB8;stroke-width:24;stroke-linecap:round;stroke-linejoin:round;stroke-miterlimit:10;}
	.st3{fill:#FFFFFF;stroke:#000000;stroke-width:12;stroke-linecap:round;stroke-miterlimit:10;}
</style>
<path class="st0" d="M220.4,260H39.6C17.7,260,0,242.3,0,220.4V39.6C0,17.7,17.7,0,39.6,0h180.8C242.3,0,260,17.7,260,39.6v180.8
	C260,242.3,242.3,260,220.4,260z"/>
<g>
	<polyline class="st1" points="60,167 70.3,125.4 142.4,116.5 167.9,82.4 170.3,42 209.3,42.1 	"/>
	<polyline class="st2" points="60,198 99.4,198 99.3,166 134.8,146.6 179.1,140.3 210,73 	"/>
</g>
<line class="st3" x1="40" y1="25" x2="40" y2="235"/>
<line class="st3" x1="25" y1="220" x2="235" y2="220"/>
</svg>
